<svg class="ui-pdp-icon ui-pdp-icon--share-gallery" xmlns="http://www.w3.org/2000/svg" width="40" height="40"
    viewBox="0 0 40 40">
    <g fill="none" fill-rule="evenodd">
        <circle cx="20" cy="20" r="20" fill="#F5F5F5"></circle>
        <g transform="translate(9 10)">
            <path fill="#333" fill-rule="nonzero"
                d="M7.565 11.848a3.002 3.002 0 1 1 0-3.707l4.337-2.173a3.006 3.006 0 0 1 2.9-3.783 3.002 3.002 0 1 1-2.362 4.856L8.102 9.214a3.006 3.006 0 0 1 0 1.562l4.337 2.17a3.002 3.002 0 1 1-.537 1.073l-4.337-2.17zm-2.363-.05a1.802 1.802 0 1 0 0-3.605 1.802 1.802 0 0 0 0 3.604zm9.6 4.802a1.802 1.802 0 1 0 0-3.605 1.802 1.802 0 0 0 0 3.605zm0-9.61a1.802 1.802 0 1 0 0-3.605 1.802 1.802 0 0 0 0 3.605z">
            </path>
        </g>
    </g>
</svg>